<svg width="39" height="48" viewBox="0 0 39 48" fill="none" xmlns="http://www.w3.org/2000/svg">
<g filter="url(#filter0_d_6609_22364)">
<path d="M2 2.36172C2 1.80167 2 1.52164 2.10899 1.30773C2.20487 1.11957 2.35785 0.966586 2.54601 0.870712C2.75992 0.761719 3.03995 0.761719 3.6 0.761719H19.1815C29.4052 0.761719 34.5171 4.71054 34.5171 12.6082C34.5171 15.605 33.4592 18.223 31.3435 20.4621C30.6417 21.205 30.2907 21.5764 30.2286 21.8363C30.1626 22.1122 30.1795 22.2605 30.3058 22.5144C30.4249 22.7537 30.852 23.0377 31.7062 23.6056C35.1421 25.8898 36.86 29.3087 36.86 33.8622C36.86 37.9504 35.4874 41.2023 32.7421 43.6181C30.0442 46.0338 26.4706 47.2417 22.0214 47.2417H19.8585C19.2985 47.2417 19.0185 47.2417 18.8045 47.1327C18.6164 47.0368 18.4634 46.8839 18.3675 46.6957C18.2585 46.4818 18.2585 46.2018 18.2585 45.6417V36.9256C18.2585 36.3655 18.2585 36.0855 18.3675 35.8716C18.4634 35.6834 18.6164 35.5304 18.8045 35.4346C19.0185 35.3256 19.2985 35.3256 19.8585 35.3256H20.6725C22.0924 35.3256 23.0864 35.1397 23.6544 34.7681C24.2224 34.3964 24.5064 33.7693 24.5064 32.8866C24.5064 31.4 23.3231 30.6567 20.9565 30.6567H19.8585C19.2985 30.6567 19.0185 30.6567 18.8045 30.5477C18.6164 30.4518 18.4634 30.2988 18.3675 30.1106C18.2585 29.8967 18.2585 29.6167 18.2585 29.0567V19.9224C18.2585 19.3834 18.2585 19.1139 18.3419 18.9227C18.4263 18.7291 18.5116 18.6248 18.6845 18.5036C18.8552 18.3839 19.187 18.3165 19.8505 18.1818C21.3925 17.8688 22.1634 17.033 22.1634 15.6743C22.1634 14.0484 21.0038 13.2354 18.6845 13.2354H17.6576C17.0975 13.2354 16.8175 13.2354 16.6036 13.3444C16.4154 13.4402 16.2625 13.5932 16.1666 13.7814C16.0576 13.9953 16.0576 14.2753 16.0576 14.8354V45.6417C16.0576 46.2018 16.0576 46.4818 15.9486 46.6957C15.8527 46.8839 15.6998 47.0368 15.5116 47.1327C15.2977 47.2417 15.0177 47.2417 14.4576 47.2417H3.6C3.03995 47.2417 2.75992 47.2417 2.54601 47.1327C2.35785 47.0368 2.20487 46.8839 2.10899 46.6957C2 46.4818 2 46.2018 2 45.6417V2.36172Z" fill="#0F0F10"/>
</g>
<defs>
<filter id="filter0_d_6609_22364" x="0" y="-1.23828" width="38.8604" height="50.4805" filterUnits="userSpaceOnUse" color-interpolation-filters="sRGB">
<feFlood flood-opacity="0" result="BackgroundImageFix"/>
<feColorMatrix in="SourceAlpha" type="matrix" values="0 0 0 0 0 0 0 0 0 0 0 0 0 0 0 0 0 0 127 0" result="hardAlpha"/>
<feOffset/>
<feGaussianBlur stdDeviation="1"/>
<feComposite in2="hardAlpha" operator="out"/>
<feColorMatrix type="matrix" values="0 0 0 0 0.0588235 0 0 0 0 0.0588235 0 0 0 0 0.0627451 0 0 0 0.1 0"/>
<feBlend mode="normal" in2="BackgroundImageFix" result="effect1_dropShadow_6609_22364"/>
<feBlend mode="normal" in="SourceGraphic" in2="effect1_dropShadow_6609_22364" result="shape"/>
</filter>
</defs>
</svg>
