<svg width="633" height="316" viewBox="0 0 633 316" fill="none" xmlns="http://www.w3.org/2000/svg">
<path d="M307.324 43.582C337.498 40.0073 360.77 44.9701 377.139 58.4697C393.689 71.7393 403.783 93.8061 407.422 124.67L417.793 212.632C421.432 243.496 416.747 267.314 403.739 284.085C390.961 301.037 369.484 311.301 339.311 314.876C309.137 318.451 285.763 313.5 269.188 300.025C252.844 286.732 242.852 264.652 239.213 233.788L228.842 145.826C225.203 114.963 229.784 91.1572 242.587 74.4102C255.571 57.4331 277.15 47.1568 307.324 43.582ZM215.883 20.2979L173.272 179.702L200.824 187.103L189.27 230.331L161.718 222.931L148.076 273.965L97.4639 260.37L111.105 209.337L0 179.495L9.46875 144.071L144.906 1.23438L215.883 20.2979ZM617.418 5.75195L604.563 170.275L633 172.508L629.514 217.125L601.077 214.893L596.962 267.564L544.725 263.464L548.84 210.791L434.166 201.788L437.022 165.228L544.162 0L617.418 5.75195ZM340.065 98.8506C333.771 93.1286 324.773 90.9605 313.073 92.3467C301.373 93.7329 293.026 97.9563 288.03 105.016C283.216 111.845 281.573 121.741 283.102 134.704L294.564 231.925C296.093 244.888 300.004 254.23 306.298 259.952C312.773 265.444 321.861 267.496 333.562 266.11C345.261 264.724 353.519 260.616 358.333 253.787C363.328 246.728 365.062 236.716 363.533 223.754L352.07 126.533C350.542 113.57 346.541 104.342 340.065 98.8506ZM563.423 52.0137C554.488 70.8478 547.176 84.8221 541.488 93.9355L499.162 162.001L552.326 166.175L557.749 96.7705C558.766 83.7574 560.657 68.8382 563.423 52.0137ZM154.367 55.8984C142.151 72.7803 132.417 85.1815 125.165 93.1006L71.1514 152.273L122.661 166.108L140.636 98.8643C144.006 86.256 148.583 71.9338 154.367 55.8984Z" fill="#EAEBEC"/>
</svg>
