<svg width="99" height="25" viewBox="0 0 99 25" fill="none" xmlns="http://www.w3.org/2000/svg">
<path d="M0 1.03809H8.57168C13.6722 1.03809 16.2224 2.97733 16.2224 6.85583C16.2224 8.74945 15.3487 10.3351 13.6013 11.6127C16.128 12.685 17.3913 14.5786 17.3913 17.2935C17.3913 19.3012 16.7065 20.8983 15.3369 22.0846C13.991 23.271 12.2082 23.8642 9.98849 23.8642H8.11122V18.0122H9.3155C10.0239 18.0122 10.5198 17.9209 10.8032 17.7384C11.0865 17.5559 11.2282 17.2479 11.2282 16.8144C11.2282 16.0844 10.6379 15.7193 9.45719 15.7193H8.11122V9.66203C9.40996 9.66203 10.0593 9.22856 10.0593 8.3616C10.0593 7.56308 9.4808 7.16383 8.32374 7.16383H7.01319V23.8642H0V1.03809Z" fill="#FB9E3A"/>
<path d="M51.0869 1.03809H59.6586C64.7591 1.03809 67.3094 2.97733 67.3094 6.85583C67.3094 8.74945 66.4357 10.3351 64.6883 11.6127C67.2149 12.685 68.4782 14.5786 68.4782 17.2935C68.4782 19.3012 67.7934 20.8983 66.4238 22.0846C65.0779 23.271 63.2951 23.8642 61.0754 23.8642H59.1981V18.0122H60.4024C61.1108 18.0122 61.6067 17.9209 61.8901 17.7384C62.1734 17.5559 62.3151 17.2479 62.3151 16.8144C62.3151 16.0844 61.7248 15.7193 60.5441 15.7193H59.1981V9.66203C60.4969 9.66203 61.1462 9.22856 61.1462 8.3616C61.1462 7.56308 60.5677 7.16383 59.4107 7.16383H58.1001V23.8642H51.0869V1.03809Z" fill="#FB9E3A"/>
<path d="M23.4268 23.8642V7.78899C23.4268 5.80605 24.0364 4.19074 25.2558 2.94304C26.4977 1.67307 28.0897 1.03809 30.0316 1.03809C32.3575 1.03809 34.1413 2.08526 35.3833 4.1796C36.0607 3.08787 36.8397 2.29692 37.7204 1.80675C38.6236 1.29431 39.7301 1.03809 41.0398 1.03809C43.072 1.03809 44.6301 1.67307 45.714 2.94304C46.7979 4.19074 47.3398 6.00657 47.3398 8.39056V23.8642H40.5994V9.35975C40.5994 8.71362 40.543 8.25688 40.4301 7.98951C40.3172 7.72215 40.0914 7.58847 39.7527 7.58847C39.0752 7.58847 38.7365 8.14548 38.7365 9.25949V23.8642H32.03V9.35975C32.03 8.7359 31.9736 8.2903 31.8607 8.02293C31.7478 7.73329 31.5107 7.58847 31.1494 7.58847C30.4945 7.58847 30.1671 8.1789 30.1671 9.35975V23.8642H23.4268Z" fill="#FB9E3A"/>
<path d="M74.5137 23.8642V7.78899C74.5137 5.80605 75.1234 4.19074 76.3427 2.94304C77.5847 1.67307 79.1766 1.03809 81.1185 1.03809C83.4444 1.03809 85.2283 2.08526 86.4702 4.1796C87.1476 3.08787 87.9267 2.29692 88.8073 1.80675C89.7105 1.29431 90.817 1.03809 92.1267 1.03809C94.1589 1.03809 95.717 1.67307 96.8009 2.94304C97.8848 4.19074 98.4267 6.00657 98.4267 8.39056V23.8642H91.6864V9.35975C91.6864 8.71362 91.6299 8.25688 91.517 7.98951C91.4041 7.72215 91.1783 7.58847 90.8396 7.58847C90.1622 7.58847 89.8234 8.14548 89.8234 9.25949V23.8642H83.1169V9.35975C83.1169 8.7359 83.0605 8.2903 82.9476 8.02293C82.8347 7.73329 82.5976 7.58847 82.2363 7.58847C81.5815 7.58847 81.254 8.1789 81.254 9.35975V23.8642H74.5137Z" fill="#FB9E3A"/>
<path d="M13.6367 6.53414C13.6367 4.81665 14.2548 3.33862 15.4909 2.10004C16.7436 0.844952 18.2269 0.217407 19.9411 0.217407C21.6552 0.217407 23.1303 0.844952 24.3665 2.10004C25.6191 3.33862 26.2454 4.81665 26.2454 6.53414C26.2454 8.25163 25.6273 9.72966 24.3912 10.9682C23.155 12.2068 21.6717 12.8261 19.9411 12.8261C18.2105 12.8261 16.7271 12.2068 15.4909 10.9682C14.2548 9.72966 13.6367 8.25163 13.6367 6.53414ZM18.1116 6.53414C18.1116 7.02957 18.2846 7.45894 18.6308 7.82226C18.9934 8.16906 19.4301 8.34246 19.9411 8.34246C20.452 8.34246 20.8805 8.16906 21.2267 7.82226C21.5893 7.45894 21.7706 7.02957 21.7706 6.53414C21.7706 6.0222 21.5893 5.59282 21.2267 5.24602C20.8805 4.88271 20.452 4.70105 19.9411 4.70105C19.4301 4.70105 18.9934 4.88271 18.6308 5.24602C18.2846 5.59282 18.1116 6.0222 18.1116 6.53414Z" fill="#FF9280"/>
<path d="M13.4194 18.3928C13.4194 16.6161 14.0588 15.0871 15.3376 13.8058C16.6334 12.5075 18.1679 11.8583 19.9412 11.8583C21.7144 11.8583 23.2404 12.5075 24.5192 13.8058C25.815 15.0871 26.4629 16.6161 26.4629 18.3928C26.4629 20.1695 25.8235 21.6985 24.5448 22.9798C23.266 24.2611 21.7315 24.9018 19.9412 24.9018C18.1509 24.9018 16.6164 24.2611 15.3376 22.9798C14.0588 21.6985 13.4194 20.1695 13.4194 18.3928ZM18.0486 18.3928C18.0486 18.9053 18.2276 19.3495 18.5857 19.7254C18.9608 20.0841 19.4126 20.2635 19.9412 20.2635C20.4697 20.2635 20.913 20.0841 21.2711 19.7254C21.6462 19.3495 21.8338 18.9053 21.8338 18.3928C21.8338 17.8632 21.6462 17.4191 21.2711 17.0603C20.913 16.6844 20.4697 16.4965 19.9412 16.4965C19.4126 16.4965 18.9608 16.6844 18.5857 17.0603C18.2276 17.4191 18.0486 17.8632 18.0486 18.3928Z" fill="#FFD73F"/>
<path d="M73.2615 1.03809V23.8642H66.7397V1.03809H73.2615Z" fill="#9ED44A"/>
</svg>
