<svg width="21" height="20" viewBox="0 0 21 20" fill="none" xmlns="http://www.w3.org/2000/svg">
<path d="M10.4805 1.875C12.1932 1.875 13.7772 2.20833 15.2327 2.87498C16.6881 3.54164 17.8387 4.44816 18.6845 5.59453C19.5302 6.74086 19.9531 7.99129 19.9531 9.34578C19.9531 10.7002 19.5302 11.9524 18.6845 13.1023C17.8387 14.2522 16.6898 15.1605 15.2379 15.8271C13.786 16.4938 12.2002 16.8271 10.4805 16.8271C9.93777 16.8271 9.37742 16.7883 8.79949 16.7107C6.29035 18.4532 4.95477 19.335 4.79266 19.3562C4.71512 19.3844 4.64109 19.3809 4.57063 19.3456C4.54242 19.3245 4.52129 19.2962 4.50719 19.2609C4.49309 19.2257 4.48605 19.1939 4.48605 19.1657V19.1234C4.52836 18.8482 4.84902 17.7019 5.44812 15.6843C4.08784 15.0071 3.00771 14.1094 2.20775 12.9912C1.40779 11.8731 1.00781 10.6579 1.00781 9.34578C1.00781 7.99129 1.4307 6.74086 2.27647 5.59453C3.12225 4.44816 4.27285 3.54164 5.72828 2.87498C7.18371 2.20833 8.76777 1.875 10.4805 1.875Z" fill="#0F0F10"/>
</svg>
